<svg xmlns="http://www.w3.org/2000/svg" viewBox="0 0 512 512">
  <rect width="512" height="512" rx="120" fill="#ff7f79"/>
  <circle cx="256" cy="270" r="150" fill="#fff4df"/>
  <path d="M150 248h212c0 91-46 151-106 151s-106-60-106-151Z" fill="#72d5c5" stroke="#493b46" stroke-width="18" stroke-linejoin="round"/>
  <path d="M201 199c-25-35 27-48 3-83M257 192c-25-35 27-48 3-83M313 199c-25-35 27-48 3-83" fill="none" stroke="#fff4df" stroke-width="22" stroke-linecap="round"/>
  <path d="M127 248h258" stroke="#493b46" stroke-width="18" stroke-linecap="round"/>
  <circle cx="207" cy="292" r="12" fill="#493b46"/>
  <circle cx="305" cy="292" r="12" fill="#493b46"/>
  <path d="M220 330c20 18 52 18 72 0" fill="none" stroke="#493b46" stroke-width="14" stroke-linecap="round"/>
</svg>
